<svg width="1200" height="800" viewBox="0 0 1200 800" xmlns="http://www.w3.org/2000/svg">
  <defs>
    <pattern id="trading-chart" x="0" y="0" width="200" height="200" patternUnits="userSpaceOnUse">
      <!-- Grid lines -->
      <line x1="0" y1="0" x2="200" y2="0" stroke="#e5e7eb" stroke-width="0.5" opacity="0.3"/>
      <line x1="0" y1="50" x2="200" y2="50" stroke="#e5e7eb" stroke-width="0.5" opacity="0.3"/>
      <line x1="0" y1="100" x2="200" y2="100" stroke="#e5e7eb" stroke-width="0.5" opacity="0.3"/>
      <line x1="0" y1="150" x2="200" y2="150" stroke="#e5e7eb" stroke-width="0.5" opacity="0.3"/>
      <line x1="0" y1="200" x2="200" y2="200" stroke="#e5e7eb" stroke-width="0.5" opacity="0.3"/>
      
      <line x1="0" y1="0" x2="0" y2="200" stroke="#e5e7eb" stroke-width="0.5" opacity="0.3"/>
      <line x1="50" y1="0" x2="50" y2="200" stroke="#e5e7eb" stroke-width="0.5" opacity="0.3"/>
      <line x1="100" y1="0" x2="100" y2="200" stroke="#e5e7eb" stroke-width="0.5" opacity="0.3"/>
      <line x1="150" y1="0" x2="150" y2="200" stroke="#e5e7eb" stroke-width="0.5" opacity="0.3"/>
      <line x1="200" y1="0" x2="200" y2="200" stroke="#e5e7eb" stroke-width="0.5" opacity="0.3"/>
      
      <!-- Candlesticks -->
      <!-- Green candle 1 -->
      <rect x="20" y="60" width="20" height="40" fill="#16a34a" opacity="0.6"/>
      <line x1="30" y1="45" x2="30" y2="60" stroke="#16a34a" stroke-width="2" opacity="0.6"/>
      <line x1="30" y1="100" x2="30" y2="115" stroke="#16a34a" stroke-width="2" opacity="0.6"/>
      
      <!-- Red candle 1 -->
      <rect x="60" y="80" width="20" height="30" fill="#ef4444" opacity="0.6"/>
      <line x1="70" y1="65" x2="70" y2="80" stroke="#ef4444" stroke-width="2" opacity="0.6"/>
      <line x1="70" y1="110" x2="70" y2="125" stroke="#ef4444" stroke-width="2" opacity="0.6"/>
      
      <!-- Green candle 2 -->
      <rect x="100" y="90" width="20" height="35" fill="#16a34a" opacity="0.6"/>
      <line x1="110" y1="75" x2="110" y2="90" stroke="#16a34a" stroke-width="2" opacity="0.6"/>
      <line x1="110" y1="125" x2="110" y2="140" stroke="#16a34a" stroke-width="2" opacity="0.6"/>
      
      <!-- Green candle 3 -->
      <rect x="140" y="70" width="20" height="45" fill="#16a34a" opacity="0.6"/>
      <line x1="150" y1="55" x2="150" y2="70" stroke="#16a34a" stroke-width="2" opacity="0.6"/>
      <line x1="150" y1="115" x2="150" y2="130" stroke="#16a34a" stroke-width="2" opacity="0.6"/>
      
      <!-- Red candle 2 -->
      <rect x="180" y="85" width="20" height="25" fill="#ef4444" opacity="0.6"/>
      <line x1="190" y1="70" x2="190" y2="85" stroke="#ef4444" stroke-width="2" opacity="0.6"/>
      <line x1="190" y1="110" x2="190" y2="125" stroke="#ef4444" stroke-width="2" opacity="0.6"/>
      
      <!-- Trend line -->
      <path d="M 20 100 Q 60 90, 100 100 T 180 90" stroke="#3b82f6" stroke-width="2" fill="none" opacity="0.4"/>
    </pattern>
  </defs>
  
  <rect width="100%" height="100%" fill="url(#trading-chart)" />
  
  <!-- Overlay gradient for depth -->
  <rect width="100%" height="100%" fill="url(#fade-gradient)" />
  
  <defs>
    <linearGradient id="fade-gradient" x1="0%" y1="0%" x2="100%" y2="100%">
      <stop offset="0%" style="stop-color:white;stop-opacity:0" />
      <stop offset="100%" style="stop-color:white;stop-opacity:0.1" />
    </linearGradient>
  </defs>
</svg>